<?xml version="1.0" encoding="UTF-8"?>
<svg width="14px" height="15px" viewBox="0 0 14 15" version="1.1" xmlns="http://www.w3.org/2000/svg" xmlns:xlink="http://www.w3.org/1999/xlink">
    <!-- Generator: sketchtool 42 (36781) - http://www.bohemiancoding.com/sketch -->
    <title>92C84146-052C-4DCD-9771-628C33FD5A39</title>
    <desc>Created with sketchtool.</desc>
    <defs></defs>
    <g id="Page-1" stroke="none" stroke-width="1" fill="none" fill-rule="evenodd">
        <g id="Hover效果" transform="translate(-421.000000, -910.000000)">
            <g id="Group-13" transform="translate(421.000000, 910.000000)">
                <g id="Group">
                    <path d="M12.4923823,1.41512561 C13.3181957,1.41512561 13.987629,2.08252446 13.987629,2.89596217 L13.987629,13.5175485 C13.987629,14.3354132 13.3137256,14.9984032 12.4923823,14.9984032 L1.51095376,14.9984032 C0.685140432,14.9984032 0.0157071228,14.3309862 0.0157071228,13.5175485 L0.0157071228,2.89598031 C0.0157071228,2.07811554 0.689610514,1.41512561 1.51095376,1.41512561 L3.50868303,1.41512561 L3.50868303,0.495795656 C3.50868303,0.223984486 3.70393442,0.00159682624 4.16315417,0.00159682624 C4.62237391,0.00159682624 4.76975752,0.223984486 4.76975752,0.495795656 L4.76975752,1.41512561 L9.75257081,1.41512561 L9.75257081,0.495795656 C9.75257081,0.223984486 10.0027086,0.00159682624 10.3621284,0.00159682624 C10.7215482,0.00159682624 10.9936366,0.223984486 10.9936366,0.495795656 L10.9936366,1.41512561 L12.4923823,1.41512561 Z M12.4924007,14.0100055 C12.7645635,14.0100055 12.9896437,13.7875453 12.9896621,13.5175485 L12.9896621,2.91089218 C12.9896621,2.64134897 12.7650398,2.41843514 12.492419,2.41843514 L10.9936732,2.41843514 L10.9936732,2.55826884 C10.9936732,2.83008001 10.7943763,3.05246767 10.3516194,3.05246767 C9.90886246,3.05246767 9.74532707,2.83008001 9.74532707,2.55826884 L9.74532707,2.41843514 L4.7760981,2.41843514 L4.7760981,2.55826884 C4.7760981,2.83008001 4.4783859,3.05246767 4.1408864,3.05246767 C3.80338691,3.05246767 3.50870134,2.83008001 3.50870134,2.55826884 L3.50870134,2.41843514 L1.51095378,2.41843514 C1.23879097,2.41843514 1.01371071,2.64089537 1.01371071,2.91089218 L1.01371069,13.5175485 C1.01371069,13.7870917 1.23833294,14.0100055 1.51095376,14.0100055 L12.4924007,14.0100055 Z" id="Combined-Shape" fill="#8DC033"></path>
                    <path d="M10.9936549,4.62031839 L3.00969954,4.62031839 C2.73524672,4.62031839 2.51069775,4.8903162 2.51069775,5.22031841 C2.51069775,5.55032063 2.73524672,5.82031843 3.00969954,5.82031843 L10.9936549,5.82031843 C11.2681077,5.82031843 11.4926567,5.55032063 11.4926567,5.22031841 C11.4926384,4.8903162 11.2680894,4.62031839 10.9936549,4.62031839 Z" id="Shape" fill="#83C03C" fill-rule="nonzero"></path>
                    <path d="M10.9936549,7.58547511 L3.00969954,7.58547511 C2.73524672,7.58547511 2.51069775,7.85547291 2.51069775,8.18547513 C2.51069775,8.51547735 2.73524672,8.78547515 3.00969954,8.78547515 L10.9936549,8.78547515 C11.2681077,8.78547515 11.4926567,8.51547735 11.4926567,8.18547513 C11.4926384,7.85547291 11.2680894,7.58547511 10.9936549,7.58547511 Z" id="Shape" fill="#83C03C" fill-rule="nonzero"></path>
                    <path d="M11.0016772,10.55065 L3.00969954,10.55065 C2.73524672,10.55065 2.51069775,10.8206478 2.51069775,11.15065 C2.51069775,11.4806522 2.73524672,11.75065 3.00969954,11.75065 L11.0016772,11.75065 C11.27613,11.75065 11.500679,11.4806522 11.500679,11.15065 C11.500679,10.8206478 11.27613,10.55065 11.0016772,10.55065 Z" id="Shape" fill="#83C03C" fill-rule="nonzero"></path>
                </g>
            </g>
        </g>
    </g>
</svg>