<?xml version="1.0" encoding="UTF-8"?>
<svg width="12px" height="11px" viewBox="0 0 12 11" version="1.1" xmlns="http://www.w3.org/2000/svg" xmlns:xlink="http://www.w3.org/1999/xlink">
    <!-- Generator: Sketch 42 (36781) - http://www.bohemiancoding.com/sketch -->
    <title>Shape</title>
    <desc>Created with Sketch.</desc>
    <defs></defs>
    <g id="Page-1" stroke="none" stroke-width="1" fill="none" fill-rule="evenodd">
        <g id="商品详情页-增加同卖家商品链接" transform="translate(-261.000000, -757.000000)" fill-rule="nonzero" fill="#3E82F7">
            <g id="Group-17" transform="translate(261.000000, 755.000000)">
                <path d="M11.369127,6.54749343 L9.9375451,3.29131366 L9.92780645,3.29131366 C9.79146532,3.02839231 9.51878305,2.85648219 9.22662348,2.85648219 L2.76989694,2.85648219 C2.47773737,2.85648219 2.2050551,3.02839231 2.06871397,3.29131366 L0.627393414,6.53738107 L0.637132066,6.53738107 C0.452097671,6.99243725 0.461836323,7.36659455 0.646870718,7.66996534 C0.890337028,8.04412264 1.367531,8.2059204 1.84472496,8.26659455 L1.84472496,11.8767069 C1.84472496,12.3621002 2.22453241,12.7564822 2.69198772,12.7564822 L9.31427135,12.7564822 C9.78172666,12.7564822 10.1615341,12.3621002 10.1615341,11.8767069 L10.1615341,8.26659455 C10.6387281,8.2059204 11.1256607,8.054235 11.3593884,7.66996534 C11.5444227,7.36659455 11.5541614,6.99243725 11.369127,6.54749343 L11.369127,6.54749343 Z M9.14148492,11.5547709 C9.14148492,11.758445 8.97802891,11.9281734 8.78188169,11.9281734 L3.22437738,11.9281734 C3.02823016,11.9281734 2.86477415,11.758445 2.86477415,11.5547709 L2.86477415,8.55057816 C2.93015656,8.55057816 2.99553896,8.55057816 3.06092137,8.55906458 C3.55128939,8.55057816 4.22145903,8.34690408 4.53202545,7.82074602 C4.84259187,8.34690408 5.51276151,8.55906458 6.00312953,8.55906458 L6.00312953,8.47420038 L6.00312953,8.55906458 C6.49349756,8.55906458 7.1554944,8.34690408 7.47423362,7.82923244 C7.78480004,8.34690408 8.44679688,8.55906458 8.9371649,8.55906458 C9.00254731,8.55906458 9.06792971,8.55906458 9.13331211,8.55057816 L9.14148492,11.5547709 Z M8.95145882,7.57715492 C8.59135126,7.57715492 7.66652958,7.38169351 7.65834532,6.55735625 L7.31460629,6.54885793 C7.30642203,7.38169351 6.38160035,7.5686566 6.02149279,7.57715492 C5.66138523,7.57715492 4.72837929,7.38169351 4.72837929,6.54885793 L4.36827174,6.54885793 C4.36827174,7.38169351 3.43526579,7.57715492 3.07515824,7.57715492 C2.38768017,7.5686566 1.87988516,7.44968009 1.73256844,7.21172706 C1.64254155,7.06725558 1.65072581,6.86329585 1.75712122,6.59984786 L2.94383931,3.92287634 C2.99294488,3.80389983 3.10752456,3.72741493 3.2302885,3.72741493 L8.81253612,3.72741493 C8.93530006,3.72741493 9.04987973,3.80389983 9.09898531,3.92287634 L10.2857034,6.59984786 C10.3757303,6.86329585 10.3757303,7.06725558 10.2857034,7.21172706 C10.1383867,7.44968009 9.63893688,7.57715492 8.95145882,7.57715492 Z" id="Shape"></path>
            </g>
        </g>
    </g>
</svg>