<svg xmlns="http://www.w3.org/2000/svg" xmlns:xlink="http://www.w3.org/1999/xlink" width="29" height="14" viewBox="0 0 29 14">
    <defs>
        <rect id="a" width="29" height="14" rx="1"/>
    </defs>
    <g fill="none" fill-rule="evenodd">
        <g>
            <use fill="#1E1C1D" xlink:href="#a"/>
            <rect width="28" height="13" x=".5" y=".5" stroke="#1E1C1D" rx="1"/>
        </g>
        <path fill="#FFF" d="M4.238 7.87v2.425H3.17V3.897h2.452c.706 0 1.26.182 1.66.547.399.365.599.845.599 1.44 0 .6-.2 1.081-.6 1.443-.4.362-.953.543-1.659.543H4.238zm0-.857h1.384c.396 0 .693-.106.892-.317.2-.21.3-.479.3-.804 0-.325-.1-.596-.3-.813-.199-.217-.496-.325-.892-.325H4.238v2.259zm6.921-.51l-.457-.018a.958.958 0 0 0-.52.132.868.868 0 0 0-.324.374v3.304H8.791V5.541h.975l.07.69c.12-.244.275-.434.464-.572a1.08 1.08 0 0 1 .653-.206c.064 0 .124.005.18.015.056.01.107.023.154.037l-.128.998zm1.93 3.792H12.02V5.541h1.067v4.754zm0-5.919H12.02V3.44h1.067v.936zm2.17 1.165l.057.62c.156-.226.35-.4.585-.524.234-.123.505-.184.813-.184.31 0 .577.07.8.21.222.141.39.352.5.633.147-.263.34-.47.58-.62.241-.149.522-.223.845-.223.477 0 .854.166 1.131.498.277.333.415.836.415 1.51v2.834h-1.067V7.457c0-.416-.07-.709-.21-.877-.138-.169-.347-.253-.625-.253a.916.916 0 0 0-.58.185 1.028 1.028 0 0 0-.343.496c0 .044.001.082.004.115.003.032.005.063.005.092v3.08H17.1V7.457c0-.402-.071-.69-.213-.866-.143-.176-.351-.264-.627-.264-.216 0-.4.042-.551.125a.923.923 0 0 0-.358.354v3.49h-1.068V5.54h.975zm8.869 4.847c-.695 0-1.238-.22-1.629-.657-.39-.438-.586-1.006-.586-1.703v-.176c0-.697.195-1.272.586-1.725.391-.452.896-.677 1.514-.674.639 0 1.122.197 1.45.59.329.395.493.921.493 1.58V8.2h-2.94l-.01.022c.013.39.115.706.309.95.193.243.484.364.874.364.29 0 .541-.035.754-.105.212-.07.41-.172.59-.303l.348.698a2.263 2.263 0 0 1-.72.4 3.02 3.02 0 0 1-1.033.163zm-.115-4.078c-.278 0-.5.1-.668.3-.167.201-.27.463-.312.785l.01.022H24.9v-.083c0-.305-.071-.552-.213-.74-.142-.19-.367-.284-.675-.284z"/>
    </g>
</svg>
